HIERARCHY
ROOT Hips
{
    OFFSET 0.000000 0.000000 0.000000
    CHANNELS 6 Xposition Yposition Zposition Zrotation Xrotation Yrotation
    JOINT Spine
    {
        OFFSET -0.000000 14.517291 0.000000
        CHANNELS 3 Zrotation Xrotation Yrotation
        JOINT Spine1
        {
            OFFSET -0.000000 37.558300 0.000000
            CHANNELS 3 Zrotation Xrotation Yrotation
            JOINT Neck
            {
                OFFSET -0.000000 37.404057 3.400369
                CHANNELS 3 Zrotation Xrotation Yrotation
                JOINT Head
                {
                    OFFSET -0.000000 24.785618 -3.540803
                    CHANNELS 3 Zrotation Xrotation Yrotation
                    End Site
                    {
                        OFFSET -0.000000 35.408028 0.000000
                    }
                }
            }
            JOINT LeftShoulder
            {
                OFFSET 6.992933 33.973492 -0.192664
                CHANNELS 3 Zrotation Xrotation Yrotation
                JOINT LeftArm
                {
                    OFFSET 21.527611 0.000000 0.000000
                    CHANNELS 3 Zrotation Xrotation Yrotation
                    JOINT LeftForeArm
                    {
                        OFFSET 56.353916 0.000000 0.000000
                        CHANNELS 3 Zrotation Xrotation Yrotation
                        JOINT LeftHand
                        {
                            OFFSET 47.774071 0.000000 0.000000
                            CHANNELS 3 Zrotation Xrotation Yrotation
                            End Site
                            {
                                OFFSET 26.556021 0.000000 0.000000
                            }
                        }
                    }
                }
            }
            JOINT RightShoulder
            {
                OFFSET -7.065357 33.973492 -0.192664
                CHANNELS 3 Zrotation Xrotation Yrotation
                JOINT RightArm
                {
                    OFFSET -21.527611 0.000000 0.000000
                    CHANNELS 3 Zrotation Xrotation Yrotation
                    JOINT RightForeArm
                    {
                        OFFSET -56.353916 0.000000 0.000000
                        CHANNELS 3 Zrotation Xrotation Yrotation
                        JOINT RightHand
                        {
                            OFFSET -47.774071 0.000000 0.000000
                            CHANNELS 3 Zrotation Xrotation Yrotation
                            End Site
                            {
                                OFFSET -26.556021 0.000000 0.000000
                            }
                        }
                    }
                }
            }
        }
    }
    JOINT LeftUpLeg
    {
        OFFSET 17.704014 0.000000 0.000000
        CHANNELS 3 Zrotation Xrotation Yrotation
        JOINT LeftLeg
        {
            OFFSET -0.000000 -81.181816 0.000000
            CHANNELS 3 Zrotation Xrotation Yrotation
            JOINT LeftFoot
            {
                OFFSET -0.000000 -62.821102 0.000000
                CHANNELS 3 Zrotation Xrotation Yrotation
                JOINT LeftToeBase
                {
                    OFFSET -0.000000 -11.507608 26.556021
                    CHANNELS 3 Zrotation Xrotation Yrotation
                    End Site
                    {
                        OFFSET -0.000000 0.000000 7.081605
                    }
                }
            }
        }
    }
    JOINT RightUpLeg
    {
        OFFSET -17.704014 0.000000 0.000000
        CHANNELS 3 Zrotation Xrotation Yrotation
        JOINT RightLeg
        {
            OFFSET -0.000000 -81.181816 0.000000
            CHANNELS 3 Zrotation Xrotation Yrotation
            JOINT RightFoot
            {
                OFFSET -0.000000 -62.821102 0.000000
                CHANNELS 3 Zrotation Xrotation Yrotation
                JOINT RightToeBase
                {
                    OFFSET -0.000000 -11.507608 26.556021
                    CHANNELS 3 Zrotation Xrotation Yrotation
                    End Site
                    {
                        OFFSET -0.000000 0.000000 7.081605
                    }
                }
            }
        }
    }
}
MOTION
Frames:    4
Frame Time:    0.008333
-23.388403    151.739777    -51.780544    -0.338068    -5.518844    2.916262    1.868844    2.741267    8.185665    -1.734911    3.036375    2.790798    -1.946608    2.392145    -7.366016    9.740407    -1.060929    -5.945557    -1.768201    5.970243    -5.692796    -44.443478    16.512764    -41.727283    -0.298934    -28.879774    -126.348869    0.848364    -29.413740    -2.693446    -3.435948    12.328486    1.895566    37.687592    12.296379    57.657703    -22.546890    -29.129120    60.467548    13.200531    -13.290565    31.073431    19.078094    -29.366642    -4.495898    -10.967507    19.505539    -12.163397    -24.702276    12.572478    45.064480    0.000000    0.000000    0.000000    0.131408    -0.894601    -15.205613    6.866364    42.174297    -5.612614    -4.988630    -32.202061    -16.880518    0.000000    0.000000    0.000000    
-23.730816    151.728561    -51.884087    -0.276665    -5.529312    2.829638    1.814408    2.722641    8.196670    -1.720328    3.042866    2.793620    -1.917788    2.353426    -7.345313    9.754862    -0.973041    -5.932139    -1.727248    5.962167    -5.736635    -44.480450    16.438776    -41.731991    -0.259700    -28.879650    -126.288795    0.756347    -29.343742    -2.722675    -3.373509    12.293202    1.911869    37.562046    12.324713    57.780087    -22.580389    -29.169386    60.334785    13.249470    -13.321259    31.202868    18.668530    -29.372063    -4.777840    -11.125289    19.551449    -11.937265    -24.285418    12.486785    44.859112    0.000000    0.000000    0.000000    0.178024    -0.958268    -15.096508    6.928781    42.230171    -5.618087    -5.169724    -32.147732    -16.780165    0.000000    0.000000    0.000000    
-24.068460    151.730103    -51.979488    -0.216807    -5.546364    2.749123    1.745057    2.689510    8.195758    -1.667348    3.092500    2.791905    -1.883151    2.350394    -7.323860    9.709792    -0.949142    -5.922930    -1.738712    5.945979    -5.803198    -44.425034    16.406773    -41.746986    -0.266649    -28.952763    -126.266037    0.839028    -29.429659    -2.694615    -3.359285    12.293899    1.939590    37.515991    12.279882    57.924717    -22.628271    -29.142469    60.217857    13.256600    -13.279382    31.302914    18.258377    -29.359274    -5.100354    -11.256369    19.560961    -11.773970    -23.882879    12.435103    44.678799    0.000000    0.000000    0.000000    0.238336    -0.999692    -15.006409    6.981041    42.251881    -5.627433    -5.312685    -32.129097    -16.852388    0.000000    0.000000    0.000000    
-24.388563    151.731903    -52.054543    -0.146499    -5.571659    2.685032    1.673578    2.700025    8.178882    -1.632043    3.094665    2.784853    -1.840621    2.300457    -7.283325    9.650431    -0.866829    -5.901021    -1.746560    5.917696    -5.837729    -44.413609    16.386477    -41.745304    -0.251704    -28.990374    -126.227524    0.753214    -29.439610    -2.749707    -3.333104    12.296739    1.949716    37.521584    12.212090    58.057987    -22.589361    -29.032034    60.200432    13.274858    -13.176744    31.322151    17.835178    -29.325869    -5.379077    -11.301583    19.535831    -11.831870    -23.740591    12.205290    44.642273    0.000000    0.000000    0.000000    0.269235    -1.098723    -14.940901    7.020058    42.428200    -5.666627    -5.332295    -32.073570    -16.881231    0.000000    0.000000    0.000000    
